<svg width="1080" height="117" viewBox="0 0 1080 117" fill="none" xmlns="http://www.w3.org/2000/svg">
<g clip-path="url(#clip0_7_16)">
<path d="M1080 0H0V200H1080V0Z" fill="#E7B9F5"/>
<path d="M0 75L20 79.7C40 84.3 80 93.7 120 92.8C160 92 200 81 240 80C280 79 320 88 360 92.5C400 97 440 97 480 90.5C520 84 560 71 600 69.8C640 68.7 680 79.3 720 82.7C760 86 800 82 840 76.5C880 71 920 64 960 60.5C1000 57 1040 57 1060 57H1080V0H1060C1040 0 1000 0 960 0C920 0 880 0 840 0C800 0 760 0 720 0C680 0 640 0 600 0C560 0 520 0 480 0C440 0 400 0 360 0C320 0 280 0 240 0C200 0 160 0 120 0C80 0 40 0 20 0H0V75Z" fill="#FA7268"/>
<path d="M0 61L20 58C40 55 80 49 120 48.8C160 48.7 200 54.3 240 55.5C280 56.7 320 53.3 360 55.3C400 57.3 440 64.7 480 68C520 71.3 560 70.7 600 66.3C640 62 680 54 720 49.5C760 45 800 44 840 44.7C880 45.3 920 47.7 960 54.3C1000 61 1040 72 1060 77.5L1080 83V0H1060C1040 0 1000 0 960 0C920 0 880 0 840 0C800 0 760 0 720 0C680 0 640 0 600 0C560 0 520 0 480 0C440 0 400 0 360 0C320 0 280 0 240 0C200 0 160 0 120 0C80 0 40 0 20 0H0V61Z" fill="#EB5D7E"/>
<path d="M0 49L20 47.2C40 45.3 80 41.7 120 39.7C160 37.7 200 37.3 240 36.3C280 35.3 320 33.7 360 35.3C400 37 440 42 480 42.7C520 43.3 560 39.7 600 37C640 34.3 680 32.7 720 34.7C760 36.7 800 42.3 840 45.3C880 48.3 920 48.7 960 46.5C1000 44.3 1040 39.7 1060 37.3L1080 35V0H1060C1040 0 1000 0 960 0C920 0 880 0 840 0C800 0 760 0 720 0C680 0 640 0 600 0C560 0 520 0 480 0C440 0 400 0 360 0C320 0 280 0 240 0C200 0 160 0 120 0C80 0 40 0 20 0H0V49Z" fill="#D05292"/>
<path d="M0 21L20 23.5C40 26 80 31 120 35C160 39 200 42 240 42.8C280 43.7 320 42.3 360 39.8C400 37.3 440 33.7 480 32.5C520 31.3 560 32.7 600 35.2C640 37.7 680 41.3 720 42C760 42.7 800 40.3 840 36.7C880 33 920 28 960 26.2C1000 24.3 1040 25.7 1060 26.3L1080 27V0H1060C1040 0 1000 0 960 0C920 0 880 0 840 0C800 0 760 0 720 0C680 0 640 0 600 0C560 0 520 0 480 0C440 0 400 0 360 0C320 0 280 0 240 0C200 0 160 0 120 0C80 0 40 0 20 0H0V21Z" fill="#A950A2"/>
<path d="M0 28L20 27.5C40 27 80 26 120 23.8C160 21.7 200 18.3 240 17.7C280 17 320 19 360 18C400 17 440 13 480 14C520 15 560 21 600 23.2C640 25.3 680 23.7 720 24.2C760 24.7 800 27.3 840 26.3C880 25.3 920 20.7 960 18.3C1000 16 1040 16 1060 16H1080V0H1060C1040 0 1000 0 960 0C920 0 880 0 840 0C800 0 760 0 720 0C680 0 640 0 600 0C560 0 520 0 480 0C440 0 400 0 360 0C320 0 280 0 240 0C200 0 160 0 120 0C80 0 40 0 20 0H0V28Z" fill="#7652AA"/>
</g>
<defs>
<clipPath id="clip0_7_16">
<rect width="1080" height="117" fill="white"/>
</clipPath>
</defs>
</svg>
