<svg id="visual" viewBox="0 0 1080 300" width="1080" height="300" xmlns="http://www.w3.org/2000/svg" xmlns:xlink="http://www.w3.org/1999/xlink" version="1.1"><path d="M0 217L25.7 210.5C51.3 204 102.7 191 154.2 188.8C205.7 186.7 257.3 195.3 308.8 199.5C360.3 203.7 411.7 203.3 463 205.8C514.3 208.3 565.7 213.7 617 211.5C668.3 209.3 719.7 199.7 771.2 197.2C822.7 194.7 874.3 199.3 925.8 200C977.3 200.7 1028.7 197.3 1054.3 195.7L1080 194L1080 301L1054.3 301C1028.7 301 977.3 301 925.8 301C874.3 301 822.7 301 771.2 301C719.7 301 668.3 301 617 301C565.7 301 514.3 301 463 301C411.7 301 360.3 301 308.8 301C257.3 301 205.7 301 154.2 301C102.7 301 51.3 301 25.7 301L0 301Z" fill="#fa7268"></path><path d="M0 208L25.7 208.7C51.3 209.3 102.7 210.7 154.2 214.7C205.7 218.7 257.3 225.3 308.8 226.7C360.3 228 411.7 224 463 221.2C514.3 218.3 565.7 216.7 617 219.7C668.3 222.7 719.7 230.3 771.2 229.7C822.7 229 874.3 220 925.8 215.5C977.3 211 1028.7 211 1054.3 211L1080 211L1080 301L1054.3 301C1028.7 301 977.3 301 925.8 301C874.3 301 822.7 301 771.2 301C719.7 301 668.3 301 617 301C565.7 301 514.3 301 463 301C411.7 301 360.3 301 308.8 301C257.3 301 205.7 301 154.2 301C102.7 301 51.3 301 25.7 301L0 301Z" fill="#eb5d7e"></path><path d="M0 231L25.7 231.8C51.3 232.7 102.7 234.3 154.2 234.2C205.7 234 257.3 232 308.8 232.2C360.3 232.3 411.7 234.7 463 238.5C514.3 242.3 565.7 247.7 617 250.7C668.3 253.7 719.7 254.3 771.2 252.3C822.7 250.3 874.3 245.7 925.8 244.3C977.3 243 1028.7 245 1054.3 246L1080 247L1080 301L1054.3 301C1028.7 301 977.3 301 925.8 301C874.3 301 822.7 301 771.2 301C719.7 301 668.3 301 617 301C565.7 301 514.3 301 463 301C411.7 301 360.3 301 308.8 301C257.3 301 205.7 301 154.2 301C102.7 301 51.3 301 25.7 301L0 301Z" fill="#d05292"></path><path d="M0 245L25.7 248.3C51.3 251.7 102.7 258.3 154.2 261.2C205.7 264 257.3 263 308.8 259.3C360.3 255.7 411.7 249.3 463 246.7C514.3 244 565.7 245 617 246.5C668.3 248 719.7 250 771.2 249.7C822.7 249.3 874.3 246.7 925.8 249C977.3 251.3 1028.7 258.7 1054.3 262.3L1080 266L1080 301L1054.3 301C1028.7 301 977.3 301 925.8 301C874.3 301 822.7 301 771.2 301C719.7 301 668.3 301 617 301C565.7 301 514.3 301 463 301C411.7 301 360.3 301 308.8 301C257.3 301 205.7 301 154.2 301C102.7 301 51.3 301 25.7 301L0 301Z" fill="#a950a2"></path><path d="M0 266L25.7 267.8C51.3 269.7 102.7 273.3 154.2 274.8C205.7 276.3 257.3 275.7 308.8 276.5C360.3 277.3 411.7 279.7 463 279.3C514.3 279 565.7 276 617 274.2C668.3 272.3 719.7 271.7 771.2 270.3C822.7 269 874.3 267 925.8 267C977.3 267 1028.7 269 1054.3 270L1080 271L1080 301L1054.3 301C1028.7 301 977.3 301 925.8 301C874.3 301 822.7 301 771.2 301C719.7 301 668.3 301 617 301C565.7 301 514.3 301 463 301C411.7 301 360.3 301 308.8 301C257.3 301 205.7 301 154.2 301C102.7 301 51.3 301 25.7 301L0 301Z" fill="#7652aa"></path></svg>