<svg id="visual" viewBox="0 0 1080 600" width="1080" height="600" xmlns="http://www.w3.org/2000/svg" xmlns:xlink="http://www.w3.org/1999/xlink" version="1.1"><path d="M0 163L25.7 175.8C51.3 188.7 102.7 214.3 154.2 218.5C205.7 222.7 257.3 205.3 308.8 197.2C360.3 189 411.7 190 463 185.3C514.3 180.7 565.7 170.3 617 174.7C668.3 179 719.7 198 771.2 202.8C822.7 207.7 874.3 198.3 925.8 197C977.3 195.7 1028.7 202.3 1054.3 205.7L1080 209L1080 0L1054.3 0C1028.7 0 977.3 0 925.8 0C874.3 0 822.7 0 771.2 0C719.7 0 668.3 0 617 0C565.7 0 514.3 0 463 0C411.7 0 360.3 0 308.8 0C257.3 0 205.7 0 154.2 0C102.7 0 51.3 0 25.7 0L0 0Z" fill="#fa7268"></path><path d="M0 182L25.7 180.3C51.3 178.7 102.7 175.3 154.2 167.2C205.7 159 257.3 146 308.8 143.3C360.3 140.7 411.7 148.3 463 154C514.3 159.7 565.7 163.3 617 157.7C668.3 152 719.7 137 771.2 138.5C822.7 140 874.3 158 925.8 166.8C977.3 175.7 1028.7 175.3 1054.3 175.2L1080 175L1080 0L1054.3 0C1028.7 0 977.3 0 925.8 0C874.3 0 822.7 0 771.2 0C719.7 0 668.3 0 617 0C565.7 0 514.3 0 463 0C411.7 0 360.3 0 308.8 0C257.3 0 205.7 0 154.2 0C102.7 0 51.3 0 25.7 0L0 0Z" fill="#eb5d7e"></path><path d="M0 136L25.7 134.3C51.3 132.7 102.7 129.3 154.2 129.7C205.7 130 257.3 134 308.8 133.3C360.3 132.7 411.7 127.3 463 119.5C514.3 111.7 565.7 101.3 617 95.5C668.3 89.7 719.7 88.3 771.2 92.3C822.7 96.3 874.3 105.7 925.8 108.3C977.3 111 1028.7 107 1054.3 105L1080 103L1080 0L1054.3 0C1028.7 0 977.3 0 925.8 0C874.3 0 822.7 0 771.2 0C719.7 0 668.3 0 617 0C565.7 0 514.3 0 463 0C411.7 0 360.3 0 308.8 0C257.3 0 205.7 0 154.2 0C102.7 0 51.3 0 25.7 0L0 0Z" fill="#d05292"></path><path d="M0 108L25.7 101.2C51.3 94.3 102.7 80.7 154.2 74.8C205.7 69 257.3 71 308.8 78.2C360.3 85.3 411.7 97.7 463 103C514.3 108.3 565.7 106.7 617 103.8C668.3 101 719.7 97 771.2 97.7C822.7 98.3 874.3 103.7 925.8 99C977.3 94.3 1028.7 79.7 1054.3 72.3L1080 65L1080 0L1054.3 0C1028.7 0 977.3 0 925.8 0C874.3 0 822.7 0 771.2 0C719.7 0 668.3 0 617 0C565.7 0 514.3 0 463 0C411.7 0 360.3 0 308.8 0C257.3 0 205.7 0 154.2 0C102.7 0 51.3 0 25.7 0L0 0Z" fill="#a950a2"></path><path d="M0 65L25.7 61.3C51.3 57.7 102.7 50.3 154.2 47.2C205.7 44 257.3 45 308.8 43.5C360.3 42 411.7 38 463 38.8C514.3 39.7 565.7 45.3 617 49C668.3 52.7 719.7 54.3 771.2 57.2C822.7 60 874.3 64 925.8 64C977.3 64 1028.7 60 1054.3 58L1080 56L1080 0L1054.3 0C1028.7 0 977.3 0 925.8 0C874.3 0 822.7 0 771.2 0C719.7 0 668.3 0 617 0C565.7 0 514.3 0 463 0C411.7 0 360.3 0 308.8 0C257.3 0 205.7 0 154.2 0C102.7 0 51.3 0 25.7 0L0 0Z" fill="#7652aa"></path></svg>