<svg id="visual" viewBox="0 0 1080 100" width="1080" height="200" xmlns="http://www.w3.org/2000/svg" xmlns:xlink="http://www.w3.org/1999/xlink" version="1.1"><rect x="0" y="0" width="1080" height="200" fill="#001122"></rect><path d="M0 112L20 115.8C40 119.7 80 127.3 120 128.7C160 130 200 125 240 119.8C280 114.7 320 109.3 360 111.8C400 114.3 440 124.7 480 124.7C520 124.7 560 114.3 600 112C640 109.7 680 115.3 720 122.7C760 130 800 139 840 140.8C880 142.7 920 137.3 960 134.5C1000 131.7 1040 131.3 1060 131.2L1080 131L1080 0L1060 0C1040 0 1000 0 960 0C920 0 880 0 840 0C800 0 760 0 720 0C680 0 640 0 600 0C560 0 520 0 480 0C440 0 400 0 360 0C320 0 280 0 240 0C200 0 160 0 120 0C80 0 40 0 20 0L0 0Z" fill="#fa7268"></path><path d="M0 89L20 92.3C40 95.7 80 102.3 120 104.8C160 107.3 200 105.7 240 106.2C280 106.7 320 109.3 360 112C400 114.7 440 117.3 480 113C520 108.7 560 97.3 600 96.5C640 95.7 680 105.3 720 107.3C760 109.3 800 103.7 840 100.8C880 98 920 98 960 98.7C1000 99.3 1040 100.7 1060 101.3L1080 102L1080 0L1060 0C1040 0 1000 0 960 0C920 0 880 0 840 0C800 0 760 0 720 0C680 0 640 0 600 0C560 0 520 0 480 0C440 0 400 0 360 0C320 0 280 0 240 0C200 0 160 0 120 0C80 0 40 0 20 0L0 0Z" fill="#eb5d7e"></path><path d="M0 81L20 78.8C40 76.7 80 72.3 120 71C160 69.7 200 71.3 240 73.7C280 76 320 79 360 82.5C400 86 440 90 480 86.5C520 83 560 72 600 66.8C640 61.7 680 62.3 720 66.3C760 70.3 800 77.7 840 78.5C880 79.3 920 73.7 960 73.2C1000 72.7 1040 77.3 1060 79.7L1080 82L1080 0L1060 0C1040 0 1000 0 960 0C920 0 880 0 840 0C800 0 760 0 720 0C680 0 640 0 600 0C560 0 520 0 480 0C440 0 400 0 360 0C320 0 280 0 240 0C200 0 160 0 120 0C80 0 40 0 20 0L0 0Z" fill="#d05292"></path><path d="M0 41L20 44.8C40 48.7 80 56.3 120 57.5C160 58.7 200 53.3 240 50.2C280 47 320 46 360 45.3C400 44.7 440 44.3 480 42.8C520 41.3 560 38.7 600 40.8C640 43 680 50 720 50.8C760 51.7 800 46.3 840 43C880 39.7 920 38.3 960 37C1000 35.7 1040 34.3 1060 33.7L1080 33L1080 0L1060 0C1040 0 1000 0 960 0C920 0 880 0 840 0C800 0 760 0 720 0C680 0 640 0 600 0C560 0 520 0 480 0C440 0 400 0 360 0C320 0 280 0 240 0C200 0 160 0 120 0C80 0 40 0 20 0L0 0Z" fill="#a950a2"></path><path d="M0 30L20 28.5C40 27 80 24 120 25.2C160 26.3 200 31.7 240 35.5C280 39.3 320 41.7 360 39.5C400 37.3 440 30.7 480 27.8C520 25 560 26 600 27.3C640 28.7 680 30.3 720 29.3C760 28.3 800 24.7 840 23.8C880 23 920 25 960 25C1000 25 1040 23 1060 22L1080 21L1080 0L1060 0C1040 0 1000 0 960 0C920 0 880 0 840 0C800 0 760 0 720 0C680 0 640 0 600 0C560 0 520 0 480 0C440 0 400 0 360 0C320 0 280 0 240 0C200 0 160 0 120 0C80 0 40 0 20 0L0 0Z" fill="#7652aa"></path></svg>