<svg width="1080" height="200" viewBox="0 0 1080 200" fill="none" xmlns="http://www.w3.org/2000/svg">
<path d="M1080 20H0V173H1080V20Z" fill="#E7B9F5"/>
<path d="M0 132L20 135.8C40 139.7 80 147.3 120 148.7C160 150 200 145 240 139.8C280 134.7 320 129.3 360 131.8C400 134.3 440 144.7 480 144.7C520 144.7 560 134.3 600 132C640 129.7 680 135.3 720 142.7C760 150 800 159 840 160.8C880 162.7 920 157.3 960 154.5C1000 151.7 1040 151.3 1060 151.2L1080 151V20H1060C1040 20 1000 20 960 20C920 20 880 20 840 20C800 20 760 20 720 20C680 20 640 20 600 20C560 20 520 20 480 20C440 20 400 20 360 20C320 20 280 20 240 20C200 20 160 20 120 20C80 20 40 20 20 20H0V132Z" fill="#FA7268"/>
<path d="M0 109L20 112.3C40 115.7 80 122.3 120 124.8C160 127.3 200 125.7 240 126.2C280 126.7 320 129.3 360 132C400 134.7 440 137.3 480 133C520 128.7 560 117.3 600 116.5C640 115.7 680 125.3 720 127.3C760 129.3 800 123.7 840 120.8C880 118 920 118 960 118.7C1000 119.3 1040 120.7 1060 121.3L1080 122V20H1060C1040 20 1000 20 960 20C920 20 880 20 840 20C800 20 760 20 720 20C680 20 640 20 600 20C560 20 520 20 480 20C440 20 400 20 360 20C320 20 280 20 240 20C200 20 160 20 120 20C80 20 40 20 20 20H0V109Z" fill="#EB5D7E"/>
<path d="M0 101L20 98.8C40 96.7 80 92.3 120 91C160 89.7 200 91.3 240 93.7C280 96 320 99 360 102.5C400 106 440 110 480 106.5C520 103 560 92 600 86.8C640 81.7 680 82.3 720 86.3C760 90.3 800 97.7 840 98.5C880 99.3 920 93.7 960 93.2C1000 92.7 1040 97.3 1060 99.7L1080 102V20H1060C1040 20 1000 20 960 20C920 20 880 20 840 20C800 20 760 20 720 20C680 20 640 20 600 20C560 20 520 20 480 20C440 20 400 20 360 20C320 20 280 20 240 20C200 20 160 20 120 20C80 20 40 20 20 20H0V101Z" fill="#D05292"/>
<path d="M0 61L20 64.8C40 68.7 80 76.3 120 77.5C160 78.7 200 73.3 240 70.2C280 67 320 66 360 65.3C400 64.7 440 64.3 480 62.8C520 61.3 560 58.7 600 60.8C640 63 680 70 720 70.8C760 71.7 800 66.3 840 63C880 59.7 920 58.3 960 57C1000 55.7 1040 54.3 1060 53.7L1080 53V20H1060C1040 20 1000 20 960 20C920 20 880 20 840 20C800 20 760 20 720 20C680 20 640 20 600 20C560 20 520 20 480 20C440 20 400 20 360 20C320 20 280 20 240 20C200 20 160 20 120 20C80 20 40 20 20 20H0V61Z" fill="#A950A2"/>
<path d="M0 50L20 48.5C40 47 80 44 120 45.2C160 46.3 200 51.7 240 55.5C280 59.3 320 61.7 360 59.5C400 57.3 440 50.7 480 47.8C520 45 560 46 600 47.3C640 48.7 680 50.3 720 49.3C760 48.3 800 44.7 840 43.8C880 43 920 45 960 45C1000 45 1040 43 1060 42L1080 41V20H1060C1040 20 1000 20 960 20C920 20 880 20 840 20C800 20 760 20 720 20C680 20 640 20 600 20C560 20 520 20 480 20C440 20 400 20 360 20C320 20 280 20 240 20C200 20 160 20 120 20C80 20 40 20 20 20H0V50Z" fill="#7652AA"/>
</svg>
