<svg width="1080" height="150" viewBox="0 0 1080 150" fill="none" xmlns="http://www.w3.org/2000/svg">
<g clip-path="url(#clip0_18_9)">
<path d="M1080 0H0V200H1080V0Z" fill="#041B33"/>
<path d="M0 150L18 151.7C36 153.3 72 156.7 108 152.5C144 148.3 180 136.7 216 130.7C252 124.7 288 124.3 324 125.7C360 127 396 130 432 131.5C468 133 504 133 540 129.8C576 126.7 612 120.3 648 125.7C684 131 720 148 756 155.2C792 162.3 828 159.7 864 153.7C900 147.7 936 138.3 972 134.5C1008 130.7 1044 132.3 1062 133.2L1080 134V0H1062C1044 0 1008 0 972 0C936 0 900 0 864 0C828 0 792 0 756 0C720 0 684 0 648 0C612 0 576 0 540 0C504 0 468 0 432 0C396 0 360 0 324 0C288 0 252 0 216 0C180 0 144 0 108 0C72 0 36 0 18 0H0V150Z" fill="#041B33"/>
<path d="M0 94L18 100.5C36 107 72 120 108 126.3C144 132.7 180 132.3 216 128.5C252 124.7 288 117.3 324 117.7C360 118 396 126 432 130.5C468 135 504 136 540 131.7C576 127.3 612 117.7 648 115.2C684 112.7 720 117.3 756 116.2C792 115 828 108 864 109.2C900 110.3 936 119.7 972 118.7C1008 117.7 1044 106.3 1062 100.7L1080 95V0H1062C1044 0 1008 0 972 0C936 0 900 0 864 0C828 0 792 0 756 0C720 0 684 0 648 0C612 0 576 0 540 0C504 0 468 0 432 0C396 0 360 0 324 0C288 0 252 0 216 0C180 0 144 0 108 0C72 0 36 0 18 0H0V94Z" fill="#2B3858"/>
<path d="M0 98L18 99.5C36 101 72 104 108 107C144 110 180 113 216 110.2C252 107.3 288 98.7 324 93C360 87.3 396 84.7 432 82C468 79.3 504 76.7 540 82.3C576 88 612 102 648 104.7C684 107.3 720 98.7 756 96C792 93.3 828 96.7 864 98.5C900 100.3 936 100.7 972 100C1008 99.3 1044 97.7 1062 96.8L1080 96V0H1062C1044 0 1008 0 972 0C936 0 900 0 864 0C828 0 792 0 756 0C720 0 684 0 648 0C612 0 576 0 540 0C504 0 468 0 432 0C396 0 360 0 324 0C288 0 252 0 216 0C180 0 144 0 108 0C72 0 36 0 18 0H0V98Z" fill="#54567F"/>
<path d="M0 73L18 72.2C36 71.3 72 69.7 108 70.2C144 70.7 180 73.3 216 76C252 78.7 288 81.3 324 83.8C360 86.3 396 88.7 432 87.8C468 87 504 83 540 77.7C576 72.3 612 65.7 648 62.5C684 59.3 720 59.7 756 61.5C792 63.3 828 66.7 864 67.3C900 68 936 66 972 67.2C1008 68.3 1044 72.7 1062 74.8L1080 77V0H1062C1044 0 1008 0 972 0C936 0 900 0 864 0C828 0 792 0 756 0C720 0 684 0 648 0C612 0 576 0 540 0C504 0 468 0 432 0C396 0 360 0 324 0C288 0 252 0 216 0C180 0 144 0 108 0C72 0 36 0 18 0H0V73Z" fill="#8176A7"/>
<path d="M0 53L18 52.5C36 52 72 51 108 52C144 53 180 56 216 58.7C252 61.3 288 63.7 324 61.5C360 59.3 396 52.7 432 49.2C468 45.7 504 45.3 540 45.3C576 45.3 612 45.7 648 44.5C684 43.3 720 40.7 756 39.8C792 39 828 40 864 42.7C900 45.3 936 49.7 972 50.8C1008 52 1044 50 1062 49L1080 48V0H1062C1044 0 1008 0 972 0C936 0 900 0 864 0C828 0 792 0 756 0C720 0 684 0 648 0C612 0 576 0 540 0C504 0 468 0 432 0C396 0 360 0 324 0C288 0 252 0 216 0C180 0 144 0 108 0C72 0 36 0 18 0H0V53Z" fill="#B297CE"/>
<path d="M0 34L18 34.3C36 34.7 72 35.3 108 35.7C144 36 180 36 216 33.2C252 30.3 288 24.7 324 25.5C360 26.3 396 33.7 432 35.2C468 36.7 504 32.3 540 32C576 31.7 612 35.3 648 33.8C684 32.3 720 25.7 756 23.5C792 21.3 828 23.7 864 23.3C900 23 936 20 972 20.3C1008 20.7 1044 24.3 1062 26.2L1080 28V0H1062C1044 0 1008 0 972 0C936 0 900 0 864 0C828 0 792 0 756 0C720 0 684 0 648 0C612 0 576 0 540 0C504 0 468 0 432 0C396 0 360 0 324 0C288 0 252 0 216 0C180 0 144 0 108 0C72 0 36 0 18 0H0V34Z" fill="#E7B9F5"/>
</g>
<defs>
<clipPath id="clip0_18_9">
<rect width="1080" height="150" fill="white"/>
</clipPath>
</defs>
</svg>
