<svg width="1080" height="150" viewBox="0 0 1080 150" fill="none" xmlns="http://www.w3.org/2000/svg">
<g clip-path="url(#clip0_5_2)">
<path d="M1080 -50H0V150H1080V-50Z" fill="#001122"/>
<path d="M0 -2.00001L18 -3.70001C36 -5.30001 72 -8.70001 108 -4.50001C144 -0.300008 180 11.3 216 17.3C252 23.3 288 23.7 324 22.3C360 21 396 18 432 16.5C468 15 504 15 540 18.2C576 21.3 612 27.7 648 22.3C684 17 720 -9.05991e-06 756 -7.20001C792 -14.3 828 -11.7 864 -5.70001C900 0.299991 936 9.69999 972 13.5C1008 17.3 1044 15.7 1062 14.8L1080 14V151H1062C1044 151 1008 151 972 151C936 151 900 151 864 151C828 151 792 151 756 151C720 151 684 151 648 151C612 151 576 151 540 151C504 151 468 151 432 151C396 151 360 151 324 151C288 151 252 151 216 151C180 151 144 151 108 151C72 151 36 151 18 151H0V-2.00001Z" fill="#001122"/>
<path d="M0 54L18 47.5C36 41 72 28 108 21.7C144 15.3 180 15.7 216 19.5C252 23.3 288 30.7 324 30.3C360 30 396 22 432 17.5C468 13 504 12 540 16.3C576 20.7 612 30.3 648 32.8C684 35.3 720 30.7 756 31.8C792 33 828 40 864 38.8C900 37.7 936 28.3 972 29.3C1008 30.3 1044 41.7 1062 47.3L1080 53V151H1062C1044 151 1008 151 972 151C936 151 900 151 864 151C828 151 792 151 756 151C720 151 684 151 648 151C612 151 576 151 540 151C504 151 468 151 432 151C396 151 360 151 324 151C288 151 252 151 216 151C180 151 144 151 108 151C72 151 36 151 18 151H0V54Z" fill="#23304A"/>
<path d="M0 50L18 48.5C36 47 72 44 108 41C144 38 180 35 216 37.8C252 40.7 288 49.3 324 55C360 60.7 396 63.3 432 66C468 68.7 504 71.3 540 65.7C576 60 612 46 648 43.3C684 40.7 720 49.3 756 52C792 54.7 828 51.3 864 49.5C900 47.7 936 47.3 972 48C1008 48.7 1044 50.3 1062 51.2L1080 52V151H1062C1044 151 1008 151 972 151C936 151 900 151 864 151C828 151 792 151 756 151C720 151 684 151 648 151C612 151 576 151 540 151C504 151 468 151 432 151C396 151 360 151 324 151C288 151 252 151 216 151C180 151 144 151 108 151C72 151 36 151 18 151H0V50Z" fill="#4C5074"/>
<path d="M0 75L18 75.8C36 76.7 72 78.3 108 77.8C144 77.3 180 74.7 216 72C252 69.3 288 66.7 324 64.2C360 61.7 396 59.3 432 60.2C468 61 504 65 540 70.3C576 75.7 612 82.3 648 85.5C684 88.7 720 88.3 756 86.5C792 84.7 828 81.3 864 80.7C900 80 936 82 972 80.8C1008 79.7 1044 75.3 1062 73.2L1080 71V151H1062C1044 151 1008 151 972 151C936 151 900 151 864 151C828 151 792 151 756 151C720 151 684 151 648 151C612 151 576 151 540 151C504 151 468 151 432 151C396 151 360 151 324 151C288 151 252 151 216 151C180 151 144 151 108 151C72 151 36 151 18 151H0V75Z" fill="#7A72A0"/>
<path d="M0 95L18 95.5C36 96 72 97 108 96C144 95 180 92 216 89.3C252 86.7 288 84.3 324 86.5C360 88.7 396 95.3 432 98.8C468 102.3 504 102.7 540 102.7C576 102.7 612 102.3 648 103.5C684 104.7 720 107.3 756 108.2C792 109 828 108 864 105.3C900 102.7 936 98.3 972 97.2C1008 96 1044 98 1062 99L1080 100V151H1062C1044 151 1008 151 972 151C936 151 900 151 864 151C828 151 792 151 756 151C720 151 684 151 648 151C612 151 576 151 540 151C504 151 468 151 432 151C396 151 360 151 324 151C288 151 252 151 216 151C180 151 144 151 108 151C72 151 36 151 18 151H0V95Z" fill="#AE95CB"/>
<path d="M0 114L18 113.7C36 113.3 72 112.7 108 112.3C144 112 180 112 216 114.8C252 117.7 288 123.3 324 122.5C360 121.7 396 114.3 432 112.8C468 111.3 504 115.7 540 116C576 116.3 612 112.7 648 114.2C684 115.7 720 122.3 756 124.5C792 126.7 828 124.3 864 124.7C900 125 936 128 972 127.7C1008 127.3 1044 123.7 1062 121.8L1080 120V151H1062C1044 151 1008 151 972 151C936 151 900 151 864 151C828 151 792 151 756 151C720 151 684 151 648 151C612 151 576 151 540 151C504 151 468 151 432 151C396 151 360 151 324 151C288 151 252 151 216 151C180 151 144 151 108 151C72 151 36 151 18 151H0V114Z" fill="#E7B9F5"/>
</g>
<defs>
<clipPath id="clip0_5_2">
<rect width="1080" height="150" fill="white"/>
</clipPath>
</defs>
</svg>
